<svg xmlns="http://www.w3.org/2000/svg" class="nav-download__icon" width="19" height="16" fill="none"><path d="M3.76 15.735a3.51 3.51 0 0 1-1.885-.534A3.903 3.903 0 0 1 .506 13.76 3.985 3.985 0 0 1 0 11.784c0-.649.14-1.257.422-1.823a3.879 3.879 0 0 1 1.172-1.393 4.119 4.119 0 0 1-.16-1.127c0-.712.17-1.37.507-1.975a3.828 3.828 0 0 1 1.368-1.432 3.493 3.493 0 0 1 1.875-.535c.1 0 .25.007.45.02a6.231 6.231 0 0 1 2.222-2.234 5.822 5.822 0 0 1 3-.82c1.107 0 2.132.292 3.075.877a6.29 6.29 0 0 1 2.24 2.358 6.52 6.52 0 0 1 .835 3.245c.55.464.978 1.034 1.285 1.708.306.675.459 1.39.459 2.148 0 .89-.212 1.715-.637 2.472a4.761 4.761 0 0 1-1.707 1.794 4.336 4.336 0 0 1-2.343.668H3.758Zm10.303-1.431a3.04 3.04 0 0 0 1.64-.468 3.439 3.439 0 0 0 1.2-1.279c.294-.54.44-1.126.44-1.756 0-.636-.146-1.222-.44-1.756a3.398 3.398 0 0 0-1.181-1.28.344.344 0 0 1-.122-.104.35.35 0 0 1-.028-.153c0-.057.003-.137.01-.239.012-.101.018-.203.018-.305a5.2 5.2 0 0 0-.637-2.539 4.873 4.873 0 0 0-1.735-1.842 4.355 4.355 0 0 0-2.372-.687 4.37 4.37 0 0 0-1.847.4c-.58.262-1.09.63-1.528 1.108A5.16 5.16 0 0 0 6.47 5.036c-.038.102-.094.153-.169.153a.26.26 0 0 1-.131-.038 2.254 2.254 0 0 0-.985-.22c-.425 0-.818.111-1.18.334a2.44 2.44 0 0 0-.854.916c-.206.382-.31.802-.31 1.26 0 .306.048.598.141.878.1.274.238.522.413.745.043.05.065.098.065.143 0 .057-.053.095-.159.115a2.16 2.16 0 0 0-.966.458 2.549 2.549 0 0 0-.684.878c-.162.35-.244.725-.244 1.126 0 .458.103.881.31 1.27.212.381.5.687.862.916.363.222.756.334 1.181.334h10.303Zm-4.454-1.91a.677.677 0 0 1-.496-.219L6.3 9.322a.685.685 0 0 1-.206-.497c0-.197.068-.366.206-.506a.687.687 0 0 1 .506-.22c.188 0 .35.07.488.21l1.612 1.633v-3.99a.692.692 0 0 1 .703-.715c.182 0 .347.07.497.21a.656.656 0 0 1 .207.505v3.99l1.621-1.632a.66.66 0 0 1 .488-.21c.175 0 .347.08.515.238.126.121.188.28.188.478a.676.676 0 0 1-.206.506l-2.813 2.853c-.156.147-.322.22-.497.22Z" fill="#1264A3"/></svg>