<svg xmlns="http://www.w3.org/2000/svg" width="18" height="18" viewBox="0 0 13 13" fill="none"><path d="m7.656 6.5 4.604 4.604c.16.16.24.352.24.578 0 .225-.08.418-.24.578a.788.788 0 0 1-.578.24.788.788 0 0 1-.578-.24L6.5 7.656 1.896 12.26a.788.788 0 0 1-.578.24.788.788 0 0 1-.578-.24.788.788 0 0 1-.24-.578c0-.226.08-.418.24-.578L5.344 6.5.74 1.896a.788.788 0 0 1-.24-.578C.5 1.093.58.9.74.74.9.58 1.093.5 1.318.5c.226 0 .418.08.578.24L6.5 5.344 11.104.74c.16-.16.352-.24.578-.24.225 0 .418.08.578.24.16.16.24.353.24.578 0 .226-.08.418-.24.578L7.656 6.5Z" fill="#1D1C1D" stroke="#000" stroke-width=".5"/></svg>