<svg xmlns="http://www.w3.org/2000/svg" width="20" height="20"><path d="M18.78 17.72c.147.147.22.323.22.53a.7.7 0 0 1-.22.53.767.767 0 0 1-.53.22.722.722 0 0 1-.53-.22l-4.47-4.47a7.595 7.595 0 0 1-2.22 1.25c-.807.293-1.65.44-2.53.44-1.36 0-2.613-.337-3.76-1.01s-2.057-1.583-2.73-2.73S1 9.86 1 8.5s.337-2.613 1.01-3.76 1.583-2.057 2.73-2.73S7.14 1 8.5 1s2.613.337 3.76 1.01 2.057 1.583 2.73 2.73S16 7.14 16 8.5a7.43 7.43 0 0 1-.44 2.54 7.629 7.629 0 0 1-1.25 2.21zM8.5 14.5c1.087 0 2.087-.27 3-.81a6.075 6.075 0 0 0 2.19-2.18c.54-.92.81-1.923.81-3.01s-.27-2.087-.81-3a6.05 6.05 0 0 0-2.19-2.19c-.913-.54-1.913-.81-3-.81s-2.09.27-3.01.81A6.075 6.075 0 0 0 3.31 5.5c-.54.913-.81 1.913-.81 3s.27 2.09.81 3.01a6.1 6.1 0 0 0 2.18 2.18c.92.54 1.923.81 3.01.81z" stroke="#000" stroke-width=".5"/></svg>