<svg xmlns="http://www.w3.org/2000/svg" class="c-nav--footer__svgicon" width="20" height="20" version="1" viewBox="0 0 32 32"><path d="M31.993 6.077c-1.177.523-2.44.876-3.77 1.033a6.588 6.588 0 0 0 2.887-3.63c-1.27.75-2.673 1.3-4.168 1.592A6.56 6.56 0 0 0 22.15 3a6.562 6.562 0 0 0-6.563 6.563c0 .514.057 1.016.17 1.496A18.646 18.646 0 0 1 2.227 4.2a6.564 6.564 0 0 0 2.03 8.765 6.568 6.568 0 0 1-2.973-.82v.08a6.566 6.566 0 0 0 5.264 6.438 6.566 6.566 0 0 1-2.963.113 6.573 6.573 0 0 0 6.13 4.558 13.165 13.165 0 0 1-8.15 2.81c-.53 0-1.053-.03-1.566-.09A18.603 18.603 0 0 0 10.062 29c12.072 0 18.675-10 18.675-18.675 0-.284-.008-.568-.02-.85a13.315 13.315 0 0 0 3.276-3.398z"/></svg>