<svg xmlns="http://www.w3.org/2000/svg" width="18" height="12" fill="none"><path d="M1.52 2c-.293 0-.537-.093-.73-.28A.978.978 0 0 1 .5 1C.5.713.597.477.79.29A.99.99 0 0 1 1.52 0h14.96a.99.99 0 0 1 .73.29c.193.187.29.423.29.71a.978.978 0 0 1-.29.72c-.193.187-.437.28-.73.28H1.52Zm0 5c-.293 0-.537-.093-.73-.28A.978.978 0 0 1 .5 6c0-.287.097-.523.29-.71A.99.99 0 0 1 1.52 5h14.96a.99.99 0 0 1 .73.29c.193.187.29.423.29.71a.978.978 0 0 1-.29.72c-.193.187-.437.28-.73.28H1.52Zm0 5c-.293 0-.537-.093-.73-.28A.977.977 0 0 1 .5 11c0-.287.097-.523.29-.71a.99.99 0 0 1 .73-.29h14.96a.99.99 0 0 1 .73.29c.193.187.29.423.29.71a.978.978 0 0 1-.29.72c-.193.187-.437.28-.73.28H1.52Z" fill="#1D1C1D"/></svg>